<svg width="180" height="116" viewBox="0 0 180 116" fill="none" xmlns="http://www.w3.org/2000/svg">
<path d="M114.801 35.9619C119.934 41.8172 123.051 49.4786 123.051 57.8811C123.051 76.2518 108.16 91.1427 89.7894 91.1427C81.3917 91.1427 73.7254 88.0261 67.8702 82.8923L114.796 35.9667L114.801 35.9619ZM89.7894 24.6145C71.4187 24.6145 56.5277 39.5055 56.5277 57.8762C56.5277 66.2738 59.6443 73.94 64.7781 79.7904L111.704 32.8649C105.848 27.7312 98.187 24.6145 89.7894 24.6145ZM179.046 57.8762C179.046 65.994 176.45 73.7192 171.837 80.6493C167.223 87.5794 160.617 93.7439 152.528 98.8876C136.347 109.175 114.207 115.447 89.7894 115.452C89.063 115.452 88.3366 115.437 87.6151 115.428C71.5315 115.182 56.5032 112.208 43.5853 107.177L36.2233 114.539C35.3693 115.393 33.9852 115.393 33.1312 114.539C32.2772 113.685 32.2772 112.301 33.1312 111.447L39.2172 105.361C25.5042 99.2851 14.4955 90.7991 7.7421 80.6542C3.13347 73.729 0.532227 65.9989 0.532227 57.886C0.532227 49.7681 3.12857 42.0429 7.7421 35.1127C12.3556 28.1777 18.9618 22.0182 27.0502 16.8746C43.2319 6.58741 65.372 0.314967 89.7943 0.310059C90.5206 0.310059 91.247 0.324807 91.9685 0.334623C108.052 0.584931 123.08 3.55431 135.998 8.58502L143.468 1.11504C144.322 0.261046 145.706 0.261046 146.56 1.11504C147.414 1.96903 147.414 3.353 146.56 4.20699L140.366 10.401C154.079 16.4771 165.088 24.963 171.842 35.1078C176.45 42.033 179.051 49.7632 179.051 57.8811L179.046 57.8762ZM134.168 16.5948L132.018 18.7446C141.539 29.0171 147.365 42.7644 147.365 57.8762C147.365 77.1254 137.917 94.1611 123.409 104.615C129.476 102.117 134.992 98.966 139.802 95.2998C152.524 85.5819 160.205 72.3646 160.205 57.8762C160.205 43.3877 152.524 30.1704 139.802 20.4477C138.02 19.0881 136.136 17.8022 134.168 16.5899V16.5948ZM39.7816 20.4526C27.06 30.1704 19.379 43.3877 19.379 57.8811C19.379 72.3695 27.06 85.5868 39.7816 95.3047C41.5632 96.6642 43.4479 97.95 45.416 99.1623L47.5657 97.0127C38.0442 86.7402 32.2184 72.9929 32.2184 57.8811C32.2184 38.6318 41.6663 21.5912 56.1744 11.1372C50.1081 13.6353 44.5915 16.7863 39.7816 20.4526ZM40.292 101.057C39.2123 100.321 38.1521 99.5649 37.1264 98.7845C23.5704 88.458 15.001 73.9794 15.001 57.8811C15.001 41.7828 23.5704 27.3041 37.1264 16.9777C38.1374 16.2071 39.1828 15.4612 40.2479 14.7348C27.4723 20.5213 17.4109 28.4625 11.3838 37.5374C7.18258 43.8638 4.91018 50.7056 4.90527 57.886C4.90527 65.0615 7.18258 71.9082 11.3838 78.2346C15.5851 84.5561 21.7299 90.328 29.3963 95.2065C32.7484 97.3415 36.3951 99.3047 40.292 101.067V101.057ZM89.7943 111.079C104.494 111.079 117.78 105.126 127.414 95.496C137.044 85.8616 142.997 72.5757 142.997 57.8762C142.997 43.9669 137.662 31.3189 128.926 21.8367L123.988 26.774C123.134 27.628 121.75 27.628 120.896 26.774C120.042 25.92 120.042 24.5361 120.896 23.6821L125.834 18.7446C116.352 10.0083 103.708 4.67826 89.7943 4.67335C75.0948 4.67335 61.8088 10.6268 52.1743 20.2563C42.5448 29.8907 36.5914 43.1767 36.5914 57.8762C36.5914 71.7855 41.9264 84.4285 50.6627 93.9108L55.7081 88.8702C56.5621 88.0162 57.9462 88.0162 58.8002 88.8702C59.6542 89.7242 59.6542 91.1083 58.8002 91.9623L53.7596 97.0028C63.2419 105.739 75.885 111.069 89.7992 111.069L89.7943 111.079ZM174.673 57.8811C174.673 50.7007 172.396 43.8589 168.195 37.5325C163.994 31.211 157.849 25.4391 150.182 20.5605C146.83 18.4255 143.184 16.4624 139.287 14.7004C140.366 15.4366 141.427 16.1924 142.452 16.9727C156.008 27.2992 164.578 41.7779 164.578 57.8762C164.578 73.9744 156.008 88.4531 142.452 98.7796C141.441 99.5501 140.396 100.296 139.331 101.022C152.106 95.2359 162.168 87.2997 168.19 78.2248C172.391 71.8983 174.664 65.0517 174.669 57.8762L174.673 57.8811Z" fill="white"/>
</svg>
