<svg width="643" height="103" viewBox="0 0 643 103" fill="none" xmlns="http://www.w3.org/2000/svg">
<path d="M37.4496 19.3496V83.4384C37.4496 84.6458 36.468 85.6274 35.2606 85.6274C34.0533 85.6274 33.0717 84.6458 33.0717 83.4384V19.3496C33.0717 18.1422 34.0533 17.1606 35.2606 17.1606C36.468 17.1606 37.4496 18.1373 37.4496 19.3496ZM78.4708 17.1606C77.2634 17.1606 76.2818 18.1373 76.2818 19.3496V83.4384C76.2818 84.6458 77.2634 85.6274 78.4708 85.6274C79.6782 85.6274 80.6598 84.6458 80.6598 83.4384V19.3496C80.6598 18.1422 79.6782 17.1606 78.4708 17.1606ZM197.299 17.1606C196.091 17.1606 195.11 18.1373 195.11 19.3496V83.4384C195.11 84.6458 196.091 85.6274 197.299 85.6274C198.506 85.6274 199.488 84.6458 199.488 83.4384V19.3496C199.488 18.1422 198.506 17.1606 197.299 17.1606ZM316.127 17.1606C314.919 17.1606 313.938 18.1373 313.938 19.3496V83.4384C313.938 84.6458 314.919 85.6274 316.127 85.6274C317.334 85.6274 318.316 84.6458 318.316 83.4384V19.3496C318.316 18.1422 317.334 17.1606 316.127 17.1606ZM402.547 17.1606C401.34 17.1606 400.358 18.1373 400.358 19.3496V83.4384C400.358 84.6458 401.34 85.6274 402.547 85.6274C403.754 85.6274 404.736 84.6458 404.736 83.4384V19.3496C404.736 18.1422 403.754 17.1606 402.547 17.1606ZM456.56 17.1606C455.352 17.1606 454.371 18.1373 454.371 19.3496V83.4384C454.371 84.6458 455.352 85.6274 456.56 85.6274C457.767 85.6274 458.749 84.6458 458.749 83.4384V19.3496C458.749 18.1422 457.767 17.1606 456.56 17.1606ZM510.572 17.1606C509.365 17.1606 508.383 18.1373 508.383 19.3496V83.4384C508.383 84.6458 509.365 85.6274 510.572 85.6274C511.78 85.6274 512.761 84.6458 512.761 83.4384V19.3496C512.761 18.1422 511.78 17.1606 510.572 17.1606ZM553.782 17.1606C552.575 17.1606 551.593 18.1373 551.593 19.3496V83.4384C551.593 84.6458 552.575 85.6274 553.782 85.6274C554.99 85.6274 555.971 84.6458 555.971 83.4384V19.3496C555.971 18.1422 554.99 17.1606 553.782 17.1606ZM24.4581 0.237793C23.2507 0.237793 22.2691 1.2145 22.2691 2.42678V100.366C22.2691 101.574 23.2507 102.555 24.4581 102.555C25.6655 102.555 26.6471 101.574 26.6471 100.366V2.42678C26.6471 1.21941 25.6655 0.237793 24.4581 0.237793ZM110.878 0.237793C109.671 0.237793 108.689 1.2145 108.689 2.42678V100.366C108.689 101.574 109.671 102.555 110.878 102.555C112.086 102.555 113.067 101.574 113.067 100.366V2.42678C113.067 1.21941 112.086 0.237793 110.878 0.237793ZM67.6683 0.237793C66.4609 0.237793 65.4793 1.2145 65.4793 2.42678V100.366C65.4793 101.574 66.4609 102.555 67.6683 102.555C68.8756 102.555 69.8572 101.574 69.8572 100.366V2.42678C69.8572 1.21941 68.8756 0.237793 67.6683 0.237793ZM175.694 0.237793C174.486 0.237793 173.505 1.2145 173.505 2.42678V100.366C173.505 101.574 174.486 102.555 175.694 102.555C176.901 102.555 177.883 101.574 177.883 100.366V2.42678C177.883 1.21941 176.901 0.237793 175.694 0.237793ZM294.522 0.237793C293.314 0.237793 292.333 1.2145 292.333 2.42678V100.366C292.333 101.574 293.314 102.555 294.522 102.555C295.729 102.555 296.711 101.574 296.711 100.366V2.42678C296.711 1.21941 295.729 0.237793 294.522 0.237793ZM391.744 0.237793C390.537 0.237793 389.555 1.2145 389.555 2.42678V100.366C389.555 101.574 390.537 102.555 391.744 102.555C392.952 102.555 393.933 101.574 393.933 100.366V2.42678C393.933 1.21941 392.952 0.237793 391.744 0.237793ZM445.757 0.237793C444.55 0.237793 443.568 1.2145 443.568 2.42678V100.366C443.568 101.574 444.55 102.555 445.757 102.555C446.964 102.555 447.946 101.574 447.946 100.366V2.42678C447.946 1.21941 446.964 0.237793 445.757 0.237793ZM499.77 0.237793C498.562 0.237793 497.581 1.2145 497.581 2.42678V100.366C497.581 101.574 498.562 102.555 499.77 102.555C500.977 102.555 501.959 101.574 501.959 100.366V2.42678C501.959 1.21941 500.977 0.237793 499.77 0.237793ZM56.8657 31.6736C55.6583 31.6736 54.6767 32.6503 54.6767 33.8626V68.9254C54.6767 70.1328 55.6583 71.1144 56.8657 71.1144C58.0731 71.1144 59.0547 70.1328 59.0547 68.9254V33.8626C59.0547 32.6552 58.0731 31.6736 56.8657 31.6736ZM121.681 31.6736C120.474 31.6736 119.492 32.6503 119.492 33.8626V68.9254C119.492 70.1328 120.474 71.1144 121.681 71.1144C122.888 71.1144 123.87 70.1328 123.87 68.9254V33.8626C123.87 32.6552 122.888 31.6736 121.681 31.6736ZM240.509 31.6736C239.301 31.6736 238.32 32.6503 238.32 33.8626V68.9254C238.32 70.1328 239.301 71.1144 240.509 71.1144C241.716 71.1144 242.698 70.1328 242.698 68.9254V33.8626C242.698 32.6552 241.716 31.6736 240.509 31.6736ZM359.337 31.6736C358.129 31.6736 357.148 32.6503 357.148 33.8626V68.9254C357.148 70.1328 358.129 71.1144 359.337 71.1144C360.544 71.1144 361.526 70.1328 361.526 68.9254V33.8626C361.526 32.6552 360.544 31.6736 359.337 31.6736ZM424.152 31.6736C422.945 31.6736 421.963 32.6503 421.963 33.8626V68.9254C421.963 70.1328 422.945 71.1144 424.152 71.1144C425.359 71.1144 426.341 70.1328 426.341 68.9254V33.8626C426.341 32.6552 425.359 31.6736 424.152 31.6736ZM478.165 31.6736C476.957 31.6736 475.976 32.6503 475.976 33.8626V68.9254C475.976 70.1328 476.957 71.1144 478.165 71.1144C479.372 71.1144 480.354 70.1328 480.354 68.9254V33.8626C480.354 32.6552 479.372 31.6736 478.165 31.6736ZM532.177 31.6736C530.97 31.6736 529.988 32.6503 529.988 33.8626V68.9254C529.988 70.1328 530.97 71.1144 532.177 71.1144C533.385 71.1144 534.366 70.1328 534.366 68.9254V33.8626C534.366 32.6552 533.385 31.6736 532.177 31.6736ZM575.387 31.6736C574.18 31.6736 573.199 32.6503 573.199 33.8626V68.9254C573.199 70.1328 574.18 71.1144 575.387 71.1144C576.595 71.1144 577.576 70.1328 577.576 68.9254V33.8626C577.576 32.6552 576.595 31.6736 575.387 31.6736ZM154.089 31.6736C152.881 31.6736 151.9 32.6503 151.9 33.8626V68.9254C151.9 70.1328 152.881 71.1144 154.089 71.1144C155.296 71.1144 156.278 70.1328 156.278 68.9254V33.8626C156.278 32.6552 155.296 31.6736 154.089 31.6736ZM262.114 31.6736C260.907 31.6736 259.925 32.6503 259.925 33.8626V68.9254C259.925 70.1328 260.907 71.1144 262.114 71.1144C263.321 71.1144 264.303 70.1328 264.303 68.9254V33.8626C264.303 32.6552 263.321 31.6736 262.114 31.6736ZM380.942 31.6736C379.734 31.6736 378.753 32.6503 378.753 33.8626V68.9254C378.753 70.1328 379.734 71.1144 380.942 71.1144C382.149 71.1144 383.131 70.1328 383.131 68.9254V33.8626C383.131 32.6552 382.149 31.6736 380.942 31.6736ZM434.954 31.6736C433.747 31.6736 432.766 32.6503 432.766 33.8626V68.9254C432.766 70.1328 433.747 71.1144 434.954 71.1144C436.162 71.1144 437.143 70.1328 437.143 68.9254V33.8626C437.143 32.6552 436.162 31.6736 434.954 31.6736ZM488.967 31.6736C487.76 31.6736 486.778 32.6503 486.778 33.8626V68.9254C486.778 70.1328 487.76 71.1144 488.967 71.1144C490.175 71.1144 491.156 70.1328 491.156 68.9254V33.8626C491.156 32.6552 490.175 31.6736 488.967 31.6736ZM542.98 31.6736C541.772 31.6736 540.791 32.6503 540.791 33.8626V68.9254C540.791 70.1328 541.772 71.1144 542.98 71.1144C544.187 71.1144 545.169 70.1328 545.169 68.9254V33.8626C545.169 32.6552 544.187 31.6736 542.98 31.6736ZM586.19 31.6736C584.983 31.6736 584.001 32.6503 584.001 33.8626V68.9254C584.001 70.1328 584.983 71.1144 586.19 71.1144C587.397 71.1144 588.379 70.1328 588.379 68.9254V33.8626C588.379 32.6552 587.397 31.6736 586.19 31.6736ZM13.6556 31.6736C12.4482 31.6736 11.4666 32.6503 11.4666 33.8626V68.9254C11.4666 70.1328 12.4482 71.1144 13.6556 71.1144C14.8629 71.1144 15.8445 70.1328 15.8445 68.9254V33.8626C15.8445 32.6552 14.8629 31.6736 13.6556 31.6736ZM629.4 31.6736C628.193 31.6736 627.211 32.6503 627.211 33.8626V68.9254C627.211 70.1328 628.193 71.1144 629.4 71.1144C630.608 71.1144 631.589 70.1328 631.589 68.9254V33.8626C631.589 32.6552 630.608 31.6736 629.4 31.6736ZM618.598 17.1606C617.39 17.1606 616.409 18.1373 616.409 19.3496V83.4384C616.409 84.6458 617.39 85.6274 618.598 85.6274C619.805 85.6274 620.787 84.6458 620.787 83.4384V19.3496C620.787 18.1422 619.805 17.1606 618.598 17.1606ZM607.795 0.23291C606.588 0.23291 605.606 1.20959 605.606 2.42186V100.361C605.606 101.569 606.588 102.55 607.795 102.55C609.003 102.55 609.984 101.569 609.984 100.361V2.42186C609.984 1.21449 609.003 0.23291 607.795 0.23291ZM596.993 31.6736C595.785 31.6736 594.804 32.6503 594.804 33.8626V68.9254C594.804 70.1328 595.785 71.1144 596.993 71.1144C598.2 71.1144 599.182 70.1328 599.182 68.9254V33.8626C599.182 32.6552 598.2 31.6736 596.993 31.6736ZM46.0632 42.5547C44.8558 42.5547 43.8742 43.5314 43.8742 44.7437V58.0444C43.8742 59.2518 44.8558 60.2334 46.0632 60.2334C47.2706 60.2334 48.2522 59.2518 48.2522 58.0444V44.7437C48.2522 43.5363 47.2706 42.5547 46.0632 42.5547ZM89.2733 42.5547C88.066 42.5547 87.0844 43.5314 87.0844 44.7437V58.0444C87.0844 59.2518 88.066 60.2334 89.2733 60.2334C90.4807 60.2334 91.4623 59.2518 91.4623 58.0444V44.7437C91.4623 43.5363 90.4807 42.5547 89.2733 42.5547ZM218.904 42.5547C217.696 42.5547 216.715 43.5314 216.715 44.7437V58.0444C216.715 59.2518 217.696 60.2334 218.904 60.2334C220.111 60.2334 221.093 59.2518 221.093 58.0444V44.7437C221.093 43.5363 220.111 42.5547 218.904 42.5547ZM143.286 17.1606C142.079 17.1606 141.097 18.1373 141.097 19.3496V83.4384C141.097 84.6458 142.079 85.6274 143.286 85.6274C144.493 85.6274 145.475 84.6458 145.475 83.4384V19.3496C145.475 18.1422 144.493 17.1606 143.286 17.1606ZM229.706 17.1606C228.499 17.1606 227.517 18.1373 227.517 19.3496V83.4384C227.517 84.6458 228.499 85.6274 229.706 85.6274C230.914 85.6274 231.895 84.6458 231.895 83.4384V19.3496C231.895 18.1422 230.914 17.1606 229.706 17.1606ZM348.534 17.1606C347.327 17.1606 346.345 18.1373 346.345 19.3496V83.4384C346.345 84.6458 347.327 85.6274 348.534 85.6274C349.742 85.6274 350.723 84.6458 350.723 83.4384V19.3496C350.723 18.1422 349.742 17.1606 348.534 17.1606ZM132.483 0.23291C131.276 0.23291 130.294 1.20959 130.294 2.42186V100.361C130.294 101.569 131.276 102.55 132.483 102.55C133.691 102.55 134.672 101.569 134.672 100.361V2.42186C134.672 1.21449 133.691 0.23291 132.483 0.23291ZM272.916 0.23291C271.709 0.23291 270.727 1.20959 270.727 2.42186V100.361C270.727 101.569 271.709 102.55 272.916 102.55C274.124 102.55 275.105 101.569 275.105 100.361V2.42186C275.105 1.21449 274.124 0.23291 272.916 0.23291ZM208.101 0.23291C206.894 0.23291 205.912 1.20959 205.912 2.42186V100.361C205.912 101.569 206.894 102.55 208.101 102.55C209.309 102.55 210.29 101.569 210.29 100.361V2.42186C210.29 1.21449 209.309 0.23291 208.101 0.23291ZM326.929 0.23291C325.722 0.23291 324.74 1.20959 324.74 2.42186V100.361C324.74 101.569 325.722 102.55 326.929 102.55C328.137 102.55 329.118 101.569 329.118 100.361V2.42186C329.118 1.21449 328.137 0.23291 326.929 0.23291ZM186.496 31.6736C185.289 31.6736 184.307 32.6503 184.307 33.8626V68.9254C184.307 70.1328 185.289 71.1144 186.496 71.1144C187.704 71.1144 188.685 70.1328 188.685 68.9254V33.8626C188.685 32.6552 187.704 31.6736 186.496 31.6736ZM283.719 31.6736C282.512 31.6736 281.53 32.6503 281.53 33.8626V68.9254C281.53 70.1328 282.512 71.1144 283.719 71.1144C284.926 71.1144 285.908 70.1328 285.908 68.9254V33.8626C285.908 32.6552 284.926 31.6736 283.719 31.6736ZM305.324 31.6736C304.117 31.6736 303.135 32.6503 303.135 33.8626V68.9254C303.135 70.1328 304.117 71.1144 305.324 71.1144C306.531 71.1144 307.513 70.1328 307.513 68.9254V33.8626C307.513 32.6552 306.531 31.6736 305.324 31.6736ZM100.076 31.6736C98.8685 31.6736 97.8869 32.6503 97.8869 33.8626V68.9254C97.8869 70.1328 98.8685 71.1144 100.076 71.1144C101.283 71.1144 102.265 70.1328 102.265 68.9254V33.8626C102.265 32.6552 101.283 31.6736 100.076 31.6736ZM164.891 42.5547C163.684 42.5547 162.702 43.5314 162.702 44.7437V58.0444C162.702 59.2518 163.684 60.2334 164.891 60.2334C166.098 60.2334 167.08 59.2518 167.08 58.0444V44.7437C167.08 43.5363 166.098 42.5547 164.891 42.5547ZM251.311 42.5547C250.104 42.5547 249.122 43.5314 249.122 44.7437V58.0444C249.122 59.2518 250.104 60.2334 251.311 60.2334C252.519 60.2334 253.5 59.2518 253.5 58.0444V44.7437C253.5 43.5363 252.519 42.5547 251.311 42.5547ZM370.139 42.5547C368.932 42.5547 367.95 43.5314 367.95 44.7437V58.0444C367.95 59.2518 368.932 60.2334 370.139 60.2334C371.347 60.2334 372.328 59.2518 372.328 58.0444V44.7437C372.328 43.5363 371.347 42.5547 370.139 42.5547ZM337.732 42.5547C336.524 42.5547 335.543 43.5314 335.543 44.7437V58.0444C335.543 59.2518 336.524 60.2334 337.732 60.2334C338.939 60.2334 339.921 59.2518 339.921 58.0444V44.7437C339.921 43.5363 338.939 42.5547 337.732 42.5547ZM413.349 42.5547C412.142 42.5547 411.16 43.5314 411.16 44.7437V58.0444C411.16 59.2518 412.142 60.2334 413.349 60.2334C414.557 60.2334 415.538 59.2518 415.538 58.0444V44.7437C415.538 43.5363 414.557 42.5547 413.349 42.5547ZM467.362 42.5547C466.155 42.5547 465.173 43.5314 465.173 44.7437V58.0444C465.173 59.2518 466.155 60.2334 467.362 60.2334C468.569 60.2334 469.551 59.2518 469.551 58.0444V44.7437C469.551 43.5363 468.569 42.5547 467.362 42.5547ZM640.203 42.5547C638.995 42.5547 638.014 43.5314 638.014 44.7437V58.0444C638.014 59.2518 638.995 60.2334 640.203 60.2334C641.41 60.2334 642.392 59.2518 642.392 58.0444V44.7437C642.392 43.5363 641.41 42.5547 640.203 42.5547ZM2.85304 42.5547C1.64567 42.5547 0.664062 43.5314 0.664062 44.7437V58.0444C0.664062 59.2518 1.64567 60.2334 2.85304 60.2334C4.06041 60.2334 5.04201 59.2518 5.04201 58.0444V44.7437C5.04201 43.5363 4.06041 42.5547 2.85304 42.5547ZM521.375 42.5547C520.167 42.5547 519.186 43.5314 519.186 44.7437V58.0444C519.186 59.2518 520.167 60.2334 521.375 60.2334C522.582 60.2334 523.564 59.2518 523.564 58.0444V44.7437C523.564 43.5363 522.582 42.5547 521.375 42.5547ZM564.585 42.5547C563.378 42.5547 562.396 43.5314 562.396 44.7437V58.0444C562.396 59.2518 563.378 60.2334 564.585 60.2334C565.792 60.2334 566.774 59.2518 566.774 58.0444V44.7437C566.774 43.5363 565.792 42.5547 564.585 42.5547Z" fill="white"/>
</svg>
