<svg width="179" height="259" viewBox="0 0 179 259" fill="none" xmlns="http://www.w3.org/2000/svg">
<path d="M56.4022 199.837H67.8625V232.088H60.5691V222.62C60.5691 216.613 60.6575 211.415 60.8391 207.037C60.2649 209.241 59.5385 211.69 58.6649 214.375L53.0942 232.088H46.8414L41.2708 214.375C40.6082 212.23 39.8966 209.8 39.1408 207.081C39.2929 212.156 39.3665 217.334 39.3665 222.62V232.088H32.0732V199.837H43.5334L47.7936 213.697C48.3678 215.661 49.1089 218.335 50.012 221.717C50.7384 218.851 51.4598 216.132 52.1862 213.565L56.3973 199.842L56.4022 199.837ZM73.8404 232.088H81.4968V199.837H73.8404V232.088ZM108.491 206.586C108.491 212.382 108.55 217.383 108.673 221.58C107.588 219.405 105.909 216.446 103.647 212.701L95.7645 199.837H87.519V232.088H94.8123V225.339C94.8123 219.543 94.7534 214.576 94.6307 210.438C95.5681 212.279 97.2417 215.209 99.6565 219.224L107.539 232.088H115.784V199.837H108.491V206.586ZM147.22 204.117C150.057 206.969 151.48 210.919 151.48 215.96C151.48 221 150.062 224.951 147.22 227.803C144.383 230.654 140.305 232.083 134.989 232.083H121.762V199.832H134.989C140.305 199.832 144.378 201.26 147.22 204.112V204.117ZM143.505 215.96C143.505 212.76 142.759 210.35 141.262 208.735C139.765 207.12 137.63 206.311 134.852 206.311H129.419V225.609H134.852C137.63 225.609 139.765 224.799 141.262 223.185C142.759 221.57 143.505 219.16 143.505 215.96ZM178.523 31.3892V227.823C178.509 244.696 164.771 258.434 147.892 258.454H30.8511C13.9773 258.439 0.239847 244.701 0.220215 227.823V31.3892C0.234939 14.5105 13.9773 0.777933 30.8511 0.758301H147.892C164.766 0.773025 178.504 14.5105 178.523 31.3892ZM169.772 31.3892C169.772 25.3769 167.323 19.9241 163.343 15.9388C159.358 11.9584 153.91 9.50933 147.897 9.50933H30.856C24.8437 9.50933 19.3958 11.9584 15.4105 15.9388C11.4301 19.9241 8.98095 25.3719 8.98095 31.3892V227.823C8.98095 233.835 11.4301 239.283 15.4105 243.268C19.3958 247.249 24.8437 249.698 30.856 249.698H147.897C153.91 249.698 159.358 247.249 163.343 243.268C167.323 239.283 169.772 233.835 169.772 227.823V31.3892ZM76.9128 73.6325C76.4466 74.0987 76.0049 74.5846 75.5828 75.0901C76.0049 75.5957 76.4466 76.0815 76.9128 76.5478C78.0368 77.6668 79.2785 78.6632 80.6184 79.527C80.373 78.084 80.2405 76.6067 80.2405 75.095C80.2405 73.5834 80.373 72.1011 80.6184 70.6582C79.2785 71.5171 78.0368 72.5134 76.9128 73.6374V73.6325ZM88.8049 94.5897C86.0221 92.0277 83.784 88.8817 82.2969 85.343C78.7582 83.8559 75.6072 81.6179 73.0502 78.835C71.3814 81.9418 70.4343 85.4903 70.4343 89.2695C70.4343 91.6646 70.8171 93.9615 71.5189 96.1161C73.6735 96.818 75.9754 97.2008 78.3705 97.2008C82.1497 97.2008 85.6982 96.2535 88.8049 94.5847V94.5897ZM82.2969 64.8373C83.784 61.2938 86.0221 58.1477 88.8049 55.5857C85.6982 53.917 82.1497 52.9697 78.3705 52.9697C75.9754 52.9697 73.6785 53.3526 71.5238 54.0545C70.822 56.2091 70.4392 58.5109 70.4392 60.906C70.4392 64.6852 71.3864 68.2337 73.0551 71.3405C75.6171 68.5576 78.7631 66.3196 82.3018 64.8324L82.2969 64.8373ZM92.5497 97.4609C88.4466 100.067 83.5877 101.579 78.3705 101.579C76.8588 101.579 75.3766 101.446 73.9336 101.201C74.7925 102.541 75.7889 103.782 76.9128 104.906C80.9227 108.911 86.4343 111.385 92.5497 111.385C98.6651 111.385 104.177 108.911 108.187 104.906C109.306 103.782 110.302 102.541 111.166 101.201C109.723 101.446 108.246 101.579 106.734 101.579C101.517 101.579 96.6528 100.062 92.5546 97.4609H92.5497ZM66.4342 56.4741C65.0943 57.333 63.8525 58.3293 62.7286 59.4533C58.7237 63.4631 56.25 68.9797 56.25 75.095C56.25 81.2104 58.7237 86.7222 62.7286 90.732C63.8525 91.8511 65.0943 92.8473 66.4342 93.7111C66.1888 92.2682 66.0563 90.7859 66.0563 89.2742C66.0563 84.057 67.5729 79.1932 70.1741 75.095C67.568 70.9969 66.0563 66.1331 66.0563 60.9159C66.0563 59.4042 66.1888 57.9219 66.4342 56.479V56.4741ZM92.5497 58.1231C92.0442 58.5452 91.5583 58.987 91.092 59.4533C89.9681 60.5772 88.9719 61.8188 88.113 63.1587C89.5559 62.9133 91.038 62.7808 92.5497 62.7808C94.0614 62.7808 95.5436 62.9133 96.9866 63.1587C96.1277 61.8188 95.1314 60.5772 94.0075 59.4533C93.5412 58.987 93.0552 58.5452 92.5497 58.1231ZM100.486 75.0901C100.486 72.695 100.103 70.3981 99.4014 68.2386C97.2468 67.5367 94.9448 67.1539 92.5497 67.1539C90.1546 67.1539 87.8577 67.5367 85.6981 68.2386C84.9963 70.3932 84.6135 72.695 84.6135 75.0901C84.6135 77.4852 84.9963 79.7822 85.6981 81.9368C87.8527 82.6386 90.1546 83.0214 92.5497 83.0214C94.9448 83.0214 97.2419 82.6386 99.4014 81.9368C100.103 79.7822 100.486 77.4803 100.486 75.0901ZM106.729 52.9746C102.95 52.9746 99.4013 53.9219 96.2946 55.5906C99.0774 58.1526 101.315 61.2987 102.803 64.8423C106.341 66.3294 109.492 68.5625 112.049 71.3503C113.718 68.2435 114.665 64.695 114.665 60.9159C114.665 58.5207 114.282 56.2188 113.581 54.0642C111.426 53.3623 109.124 52.9795 106.734 52.9795L106.729 52.9746ZM88.113 87.0265C88.9719 88.3663 89.9681 89.6081 91.092 90.732C91.5583 91.1983 92.0442 91.64 92.5497 92.0621C93.0552 91.64 93.5412 91.1983 94.0075 90.732C95.1265 89.6081 96.1227 88.3663 96.9866 87.0265C95.5436 87.2719 94.0614 87.4044 92.5497 87.4044C91.038 87.4044 89.5559 87.2719 88.1179 87.0265H88.113ZM118.66 56.4741C118.906 57.917 119.038 59.3993 119.038 60.9109C119.038 66.1282 117.522 70.9919 114.916 75.0901C117.522 79.1883 119.033 84.0522 119.038 89.2695C119.038 90.7811 118.906 92.2632 118.66 93.7062C120 92.8473 121.242 91.8511 122.366 90.7271C126.371 86.7173 128.845 81.2006 128.845 75.0901C128.845 68.9747 126.371 63.4582 122.366 59.4484C121.242 58.3293 120 57.333 118.66 56.4692V56.4741ZM108.187 76.5478C108.653 76.0815 109.095 75.5957 109.517 75.0901C109.095 74.5846 108.653 74.0987 108.187 73.6325C107.063 72.5134 105.821 71.5171 104.481 70.6582C104.727 72.1011 104.859 73.5785 104.859 75.095C104.859 76.6067 104.727 78.084 104.481 79.527C105.821 78.6681 107.063 77.6717 108.187 76.5527V76.5478ZM102.803 85.343C101.315 88.8817 99.0774 92.0326 96.2946 94.5897C99.4013 96.2584 102.95 97.2057 106.729 97.2057C109.124 97.2057 111.421 96.8229 113.576 96.121C114.278 93.9664 114.66 91.6644 114.66 89.2742C114.66 85.4951 113.713 81.9467 112.044 78.8399C109.482 81.6228 106.336 83.8607 102.798 85.3478L102.803 85.343ZM147.343 47.2863C154.455 59.6692 155.259 72.8815 151.819 86.4964C149.713 94.8302 146.042 102.443 140.707 109.196C135.554 115.719 133.836 123.169 134.111 131.341C134.503 143.046 137.414 154.197 141.031 165.226C141.222 165.805 141.556 166.379 141.556 166.953C141.556 167.439 142.047 167.925 141.831 168.411L63.617 168.274C62.6943 164.823 61.2219 160.18 60.3335 156.715C60.0047 155.434 59.7004 154.149 59.3716 152.868C58.6796 150.173 56.8439 148.755 54.1592 148.544C50.3702 148.249 46.5567 148.229 42.7727 147.871C40.8242 147.685 38.8512 147.218 37.0156 146.531C32.937 145.01 30.0217 139.856 30.7824 135.572C31.018 134.266 31.5971 132.911 32.3677 131.827C33.3591 130.433 33.3297 129.486 31.9113 128.534C31.3665 128.17 30.9002 127.679 30.4438 127.208C28.4168 125.132 28.3529 123.213 30.213 120.951C30.3848 120.74 30.5615 120.534 30.6253 120.455C29.5063 119.007 28.2989 117.716 27.4499 116.214C27.0965 115.591 27.3369 114.457 27.6412 113.687C28.0142 112.73 28.8094 111.954 29.2855 111.027C29.9824 109.677 29.575 108.936 28.1861 108.386C26.7088 107.797 25.2118 107.198 23.8424 106.398C20.5639 104.494 19.6657 101.201 21.5406 97.9075C22.321 96.5332 23.3713 95.2965 24.3627 94.0449C27.2682 90.3787 30.1984 86.7271 33.1383 83.0902C34.9886 80.7982 35.391 78.3442 34.9542 75.3748C33.6389 66.403 35.126 57.7109 39.2831 49.701C45.5703 37.5831 55.6562 29.534 68.1225 24.41C78.0121 20.3511 88.3779 19.5707 98.9596 20.3511C107.765 21.0038 116.324 22.5793 124.467 26.0885C134.592 30.4517 141.934 37.8825 147.328 47.2863H147.343ZM133.222 75.095C133.222 64.0962 126.523 54.6679 116.982 50.658C112.972 41.1169 103.544 34.4224 92.5497 34.4224C81.5557 34.4224 72.1276 41.1218 68.1177 50.6629C58.5765 54.6728 51.8771 64.1011 51.8771 75.095C51.8771 86.089 58.5765 95.5173 68.1177 99.5272C72.1227 109.068 81.5508 115.763 92.5497 115.768C103.544 115.768 112.977 109.068 116.982 99.5321C126.523 95.5222 133.222 86.0939 133.222 75.1V75.095ZM92.5497 52.7243C96.6528 50.1181 101.512 48.6065 106.729 48.6065C108.241 48.6065 109.718 48.739 111.161 48.9844C110.302 47.6446 109.306 46.4028 108.182 45.2789C104.172 41.2739 98.6553 38.8003 92.5448 38.8003C86.4294 38.8003 80.9178 41.2739 76.9079 45.2789C75.7889 46.4028 74.7925 47.6446 73.9336 48.9844C75.3766 48.739 76.8539 48.6065 78.3705 48.6065C83.5877 48.6065 88.4515 50.123 92.5497 52.7243ZM149.502 181.574H31.8229V188.136H149.502V181.574Z" fill="white"/>
</svg>
