<svg width="235" height="112" viewBox="0 0 235 112" fill="none" xmlns="http://www.w3.org/2000/svg">
<path d="M204.986 52.0541C204.976 45.3399 203.44 38.6454 200.436 32.6037C194.345 20.3385 186.35 9.00594 173.221 3.66111C162.085 -0.873891 149.516 0.421822 137.741 0.421822C137.481 0.421822 137.088 0.691761 136.656 1.07949C134.198 0.64268 131.69 0.421822 129.172 0.421822C128.269 0.421822 125.869 3.57277 125.226 4.21081C124.313 5.1237 123.405 6.03659 122.517 6.96911L121.437 8.15684C132.175 8.15684 142.723 12.201 150.703 19.3864C156.451 24.5594 160.092 31.2392 163.852 37.8749C166.365 42.3117 168.097 47.1118 168.99 52.0492H121.28V26.5864C121.28 27.2392 117.878 29.8355 117.334 30.3754C116.421 31.2883 115.513 32.2012 114.619 33.1337C114.408 33.3546 113.54 34.0319 113.54 34.3215V52.0492H65.1172C65.1025 48.0688 65.6326 44.0737 66.732 40.1718C68.7639 32.9718 73.0045 25.703 77.245 19.5189C77.8291 18.6698 78.5407 17.8796 79.223 17.0698C79.5174 16.8391 79.8069 16.6035 80.1112 16.3876C82.6928 14.5275 85.4807 12.952 88.4009 11.7004C93.839 9.36912 99.7384 8.15684 105.653 8.15684C106.561 8.15684 108.956 5.00591 109.599 4.36787C110.511 3.45498 111.419 2.54207 112.313 1.60955L113.392 0.421822C101.638 0.421822 90.8107 5.26112 82.3493 13.271C77.5885 17.7766 72.6707 22.4195 69.0633 27.9361C67.1639 30.8417 65.5197 33.9288 63.7872 36.9374C61.0436 41.6933 59.1245 46.7976 58.1479 52.0541H37.6177C37.5834 47.2148 38.3588 42.3412 40.0177 37.6049C41.5244 33.3055 43.8459 29.4527 46.1085 25.5312C46.7318 24.4515 47.3453 23.3668 47.9785 22.2919C48.911 20.7066 49.9122 19.1704 51.0312 17.7078C51.095 17.6244 51.1589 17.5459 51.2276 17.4673C56.6559 13.428 62.5455 10.4587 69.2548 9.06974C74.0793 8.0685 78.9284 8.16175 83.8217 8.16175C84.7248 8.16175 87.1248 5.01081 87.7678 4.37277C88.6807 3.45988 89.5886 2.54699 90.477 1.61447L91.5567 0.426719C87.2131 0.426719 82.8794 0.308937 78.5751 1.03532C71.8756 2.16907 65.4854 4.88319 60.0031 8.89304C54.2166 13.1188 48.7981 18.6207 44.2876 24.1766C41.4312 27.6956 39.2962 31.681 37.0385 35.5877C34.0102 40.8344 31.8262 46.3706 30.7219 52.0541H11.9635C11.0457 52.0541 9.85301 51.8529 8.95485 52.0541H8.56218C7.65911 52.0541 5.25919 55.2051 4.61624 55.8431C3.70335 56.756 2.79536 57.6689 1.90701 58.6014L0.827148 59.7891H29.9219C29.8581 64.4223 30.555 69.1193 32.1452 73.8113C33.7403 78.523 36.3072 82.7145 38.7759 86.9943C41.4459 91.6225 44.3368 95.971 48.2779 99.6471C53.7209 104.732 60.4596 108.378 67.6891 110.155C73.0241 111.466 78.3787 111.421 83.8217 111.421C84.7248 111.421 87.1248 108.275 87.7678 107.632C87.7874 107.613 87.8021 107.598 87.8217 107.578C93.3923 110.072 99.4832 111.421 105.667 111.421C106.575 111.421 108.97 108.275 109.613 107.632C110.526 106.72 111.434 105.807 112.327 104.874L113.407 103.686C102.668 103.686 92.1211 99.6422 84.1407 92.4569C78.3885 87.2838 74.7517 80.6089 70.9922 73.9684C68.4793 69.5316 66.7467 64.7315 65.8534 59.7941H113.564V85.2568C113.564 84.6041 116.965 82.0077 117.51 81.4678C118.423 80.5549 119.331 79.6421 120.219 78.7095C120.431 78.4887 121.299 77.8114 121.299 77.5218V59.7941H169.722C169.736 63.7745 169.206 67.7696 168.107 71.6715C166.075 78.8715 161.835 86.1403 157.594 92.3243C157.015 93.1734 156.298 93.9637 155.616 94.7735C155.322 95.0042 155.032 95.2397 154.728 95.4557C152.151 97.3158 149.358 98.8913 146.438 100.143C141.005 102.474 135.101 103.686 129.186 103.686C128.283 103.686 125.883 106.837 125.24 107.475C124.327 108.388 123.42 109.301 122.531 110.234L121.451 111.421C124.72 111.421 127.915 111.044 131.012 110.332L130.026 111.421C139.498 111.421 149.751 112.442 159.037 110.248C167.351 108.285 174.492 103.893 180.608 98.0177C186.409 92.4471 191.67 86.8863 195.7 79.9071C199.219 73.8113 202.669 67.8923 204.112 60.8934C204.186 60.5253 204.25 60.1572 204.313 59.7891H222.88C223.798 59.7891 224.991 59.9904 225.889 59.7891H226.282C227.19 59.7891 229.585 56.6382 230.228 56.0002C231.141 55.0873 232.049 54.1744 232.942 53.2419L234.022 52.0541H205.001H204.986ZM59.0018 71.6665C60.2927 76.2408 62.462 80.3488 64.8228 84.4372C66.894 88.0201 68.8523 91.6863 71.4388 94.9305C74.0106 98.1551 77.0192 100.977 80.3517 103.328C80.0229 103.289 79.694 103.25 79.3652 103.201C73.3038 102.293 67.4535 100.094 62.2903 96.7907C53.7209 91.3133 48.8226 83.3133 43.895 74.7439C41.1907 70.042 39.3159 64.9867 38.3539 59.7891H57.3969C57.3724 63.745 57.8877 67.7303 58.9969 71.6665H59.0018ZM175.822 40.1767C174.532 35.6025 172.362 31.4944 170.002 27.4061C167.93 23.8232 165.972 20.1569 163.386 16.9127C160.809 13.6784 157.79 10.8563 154.453 8.50041C155.057 8.57893 155.66 8.66727 156.259 8.77034C164.141 10.1004 171.601 13.6244 177.633 18.8612C182.561 23.1361 185.903 28.3975 189.123 33.973C192.446 39.7252 195.356 45.4577 196.564 52.0541H177.422C177.447 48.0983 176.932 44.113 175.822 40.1767ZM192.701 79.2396C190.713 83.2396 188.377 87.1709 186.002 90.9501C185.211 92.2066 184.343 93.3845 183.435 94.5428C182.517 95.2544 181.575 95.9367 180.603 96.5747C177.265 98.7539 173.638 100.467 169.84 101.664C162.266 104.05 153.987 104.001 145.908 103.824C148.225 102.278 150.419 100.516 152.475 98.5723C157.236 94.0667 162.154 89.4237 165.761 83.9071C167.66 81.0016 169.3 77.9144 171.037 74.9058C173.781 70.15 175.7 65.0456 176.676 59.7891H197.246C197.241 66.5082 195.695 73.2027 192.696 79.2396H192.701Z" fill="white"/>
</svg>
